<svg xmlns="http://www.w3.org/2000/svg" xmlns:xlink="http://www.w3.org/1999/xlink" viewBox="0 0 769.26 76.11"><defs><style>.cls-1{fill:none;}.cls-2{fill:#231f20;}.cls-3{clip-path:url(#clip-path);}.cls-4{fill:#53924f;}</style><clipPath id="clip-path" transform="translate(-200.27 -301.85)"><rect class="cls-1" width="1169.22" height="1274.98"/></clipPath></defs><title>Asset 2</title><g id="Layer_2" data-name="Layer 2"><g id="Layer_2-2" data-name="Layer 2"><path class="cls-2" d="M963.49,319.46h6V303.37H934.42v16.09h3.11L928.39,328l-9.14-8.56h3.1V303.37H886.06v16.09h7.13L918,342.52v16.06H913.3v16.09h30.08V358.58h-4.57v-16Zm-83.1-16.09H816v20.29h17.1v-4.2h4.66v39.12h-4.66v16.09H863.3V358.58h-4.57V319.46h4.57v4.2h17.09Zm-71.3,55.21h-4.57V319.46h4.57V303.37H779v16.09h4.57v39.12H779v16.09h30.08Zm-58-9.08v6.85l-2.38,2.23H737.6l-2.47-2.31v-6.68H714.19v13.69l12.16,11.39H759.9l12.16-11.39V342.57L759.9,331.1H737.6l-2.47-2.21v-7.13l2.47-2.3h11.15l2.38,2.29v7h20.93v-14L759.9,303.37H726.35l-12.16,11.45v21l12.16,11.36h22.4Zm-82.19-30h10.42l2.47,2.29v5.69l-2.47,2.29H668.94Zm0,26.36h10.42l2.47,2.31v26.54h25.51V358.58h-4.57V342.32l-5-4.63,5-4.69V314.81l-12.16-11.44H643.43v16.09H648v39.12h-4.58v16.09h30.08V358.58h-4.57ZM606,347h3.11v2.83h17.1V328.19h-17.1v2.74H606V319.46H619.3v2.74h17.19V303.37h-56v16.09H585v39.12h-4.57v16.09h56V355.75H619.3v2.83H606Zm-68.65-3.76-8.5-23.8h2.56V303.37H500.64v16.09h6.12l13.9,39.12h-3.29v16.09h40.5V358.58h-3.93l14-39.12h6.86V303.37H543.24v16.09h2.47Zm-43.61,15.32h-4.57V319.46h4.57V303.37H463.62v16.09h4.56v39.12h-4.56v16.09h30.07Zm-37,16.09V358.58H452.1V319.46h4.57V303.37H426.59v16.09h4.57v16.61l-20.93-32.7H385.45v16.09H390v39.12h-4.57v16.09h30.08V358.58H411V342.74l20.48,31.93Zm-80.91-55.21h4.57V303.37H350.26v16.09h4.57v36.9l-2.38,2.22H341.3l-2.47-2.22v-36.9h4.57V303.37H313.32v16.09h4.57V363.3l12.16,11.37H363.6l12.16-11.44Z" transform="translate(-200.27 -301.85)"/><g class="cls-3"><path class="cls-4" d="M286.08,361.52q.24-.51-.24-.51c-.33,0-.49.17-.49.51a.5.5,0,0,0,.73,0m-2.8-.41c.16.21.3.22.42.05s0-.25-.42-.25Zm-22.19-11.66a6.11,6.11,0,0,1,.73-.05,1.35,1.35,0,0,1-1.58-.2h-1a1.22,1.22,0,0,0,.07.41c0,.14.18.27.42.41a3.23,3.23,0,0,1,.92.87,1.81,1.81,0,0,0,1.15.67,1.76,1.76,0,0,0,.86.67l1.09.36c-.16-.14-.24-.48-.24-1a1.14,1.14,0,0,1-.49-.82h-.24a2.8,2.8,0,0,0-.24-1.34h-.25V349c-.32-.27-.41-.55-.24-.82a5.87,5.87,0,0,0-.61.56,2.19,2.19,0,0,1-.73.47c0,.2.12.29.36.25m3.17-21.72-.49-.2v1a1.55,1.55,0,0,1,1,.41,1.16,1.16,0,0,1,.73-.2c.33-.28.57-.34.73-.21a.83.83,0,0,1,.12-.41.79.79,0,0,0,.13-.41h-.73v-.82a1.66,1.66,0,0,1-1.71.41Zm-1.95-.62c.08-.27,0-.41-.24-.41s-.25.21-.25.62c.25.14.41.07.49-.21m2.2-3.08v.41l-.49-.2a.81.81,0,0,1-.12.41.73.73,0,0,0-.13.41.55.55,0,0,1,.37.1.54.54,0,0,0,.37.11q.24.3.12.51t.12.51a.39.39,0,0,0,.12.31.39.39,0,0,1,.12.31h1a2.56,2.56,0,0,0-.06-.57c0-.17.14-.25.55-.25a3.8,3.8,0,0,0-1-.62l.25.62a1.52,1.52,0,0,0-1-.41V324Zm-2.75.11c.13.2,0,.37-.42.51a5.12,5.12,0,0,1,.36.51,1,1,0,0,1,.12.52,1.4,1.4,0,0,1,.67-.21H263a.36.36,0,0,1,.13-.31.39.39,0,0,0,.12-.31c-.33,0-.49.14-.49.42a.88.88,0,0,0-.18-1,2.72,2.72,0,0,0-1-.62,1.11,1.11,0,0,0,.18.52m28.59-16.49q.48-.15-.12-.15-.37.3.12.15m-12.92-5.8a2,2,0,0,0,.24,1l-.37-.46a.56.56,0,0,1-.12-.36h-1.34l.12.11a.19.19,0,0,0,.06.15.2.2,0,0,1,.07.15,1,1,0,0,0-1-.46,5.32,5.32,0,0,0-1.22.26h-.73a4.1,4.1,0,0,0-1.46.2h-.49a1.36,1.36,0,0,1-.67.21.87.87,0,0,0-.55.2,3.52,3.52,0,0,0-1.83.52.55.55,0,0,1,.37.1.53.53,0,0,0,.36.1c-.48,0-1,0-1.46.06A4.57,4.57,0,0,0,266,304l-.85.47L264,305a4.89,4.89,0,0,0-1.71.93,14.07,14.07,0,0,1-1.58,1.13,8.89,8.89,0,0,0-1.77,2c-.45.68-.91,1.37-1.4,2a.75.75,0,0,1-.25.62c-.24.61-.46,1.2-.67,1.74s-.38,1.13-.55,1.75a2.36,2.36,0,0,1,.25,1.23h.24V317a1.07,1.07,0,0,1,.49-.26,2.63,2.63,0,0,1,.49-.05c-.33,0-.49.17-.49.51a4.13,4.13,0,0,0,1.46.41v.21h-1.7V317h-1a25,25,0,0,0-.36,2.56,27.72,27.72,0,0,0-.13,2.78v7.29a5.22,5.22,0,0,0,1.71-.67,1.94,1.94,0,0,1,1.71-.15,2.67,2.67,0,0,1,1.4-.62,4.3,4.3,0,0,0,1.64-.61v-1a1.19,1.19,0,0,0-1.09-.62l-.73-.61a.82.82,0,0,0,.42-.11,1.15,1.15,0,0,1,.55-.1v-.62l.37.21a1.71,1.71,0,0,1,.12-.62.83.83,0,0,0-.12-.72v-.61H261a.56.56,0,0,0-.12-.36.76.76,0,0,1-.12-.47.74.74,0,0,0-.25-.61h1.1c-.16-.14-.24-.48-.24-1v.82h1.46a2.53,2.53,0,0,1,.24-1.23v.41h.25v.41A2.54,2.54,0,0,0,265,320a3.71,3.71,0,0,1-1,.61.75.75,0,0,1-.25.62q.12.62-.24.15c-.24-.3-.41-.42-.49-.36v.62h.13a.73.73,0,0,1,.36.2,4.2,4.2,0,0,1,1.46.42v-.83l.25.21v-.82a2.06,2.06,0,0,1,.24-.82,3.19,3.19,0,0,1,.73-.82h.12a.67.67,0,0,1,.37.2c-.41-.14-.67-.05-.79.26a3.1,3.1,0,0,1-.43.77v.41c0,.14,0,.2.12.2h-.12a.78.78,0,0,1-.12.41.83.83,0,0,0-.12.41h.49a1.28,1.28,0,0,1,.48.42,1.42,1.42,0,0,0,.49.41v-.41h.73a.77.77,0,0,1-.36.2h-.13c.49.21.49.41,0,.62v.72h1.71a.6.6,0,0,0,.24-.46v-.47h.37a5,5,0,0,1,.73-1c.16.21.2.38.12.52a4.17,4.17,0,0,1-.36.51,1.47,1.47,0,0,1,.73.41c-.41-.2-.71-.15-.92.16s-.22.56-.06.77a1.41,1.41,0,0,0-.36.46.54.54,0,0,0,.12.57h0a3,3,0,0,1-.55.35.51.51,0,0,0-.3.47.37.37,0,0,0,.24-.11.52.52,0,0,0,.24-.05,1.13,1.13,0,0,1,.37-.05c-.24.14-.37.24-.37.31v.1l.86.21-.25-.41h.73c-.32-.55-.4-1-.24-1.24a.56.56,0,0,0-.37.11.53.53,0,0,1-.36.1c0-.27.08-.41.24-.41a3.75,3.75,0,0,1,1.1.15,1.44,1.44,0,0,0,1.1-.15c0,.14-.08.24-.25.31a.33.33,0,0,0-.24.31c.73,0,1,.34.73,1h-.49v-.2h.49l-.24-.41a.78.78,0,0,0-.49-.21h-.49a1.11,1.11,0,0,1-.49.82.75.75,0,0,0,.25.62.68.68,0,0,0,.61.1c.16-.07.36-.17.61-.31v.41h1.22a212.46,212.46,0,0,1-1.95.83.53.53,0,0,1,.36.1.55.55,0,0,0,.37.1,2.38,2.38,0,0,1-.55.51,6.48,6.48,0,0,0-.67.52v1.13a2.19,2.19,0,0,1-.73-.72h-.49q.24.21.24.36c0,.1.08.22.25.36h.48l.49.2H269.5q-.48-.4-.36-.66a1.16,1.16,0,0,0,.12-.47.53.53,0,0,1,.36.11.56.56,0,0,0,.37.1.53.53,0,0,0,.12-.57,1.09,1.09,0,0,1-.12-.46.75.75,0,0,0-.24-.61l-.13-.11a.24.24,0,0,1-.18-.05.3.3,0,0,0-.18,0c-.41-.14-.65-.09-.73.15a2.16,2.16,0,0,0-.12.67h.48V329l-.24-.2v.82a.74.74,0,0,0-.49-.21.39.39,0,0,1-.12.31.39.39,0,0,0-.12.31.59.59,0,0,0,.06-.67.8.8,0,0,0-.79-.36,2.38,2.38,0,0,0-1,1c-.24-.07-.4,0-.48.1a3.42,3.42,0,0,0-.25.47,2.47,2.47,0,0,1-.24.41c-.08.1-.25.08-.49-.06v.41h-.24a.38.38,0,0,1,.12-.3.39.39,0,0,0,.12-.31h.49a.82.82,0,0,1,.49-.77.52.52,0,0,0,.24-.77.74.74,0,0,1,.49-.21,2.94,2.94,0,0,1-1.28.11,2.22,2.22,0,0,0-1.16.1v.41a.91.91,0,0,0-.67-.57,7.79,7.79,0,0,0-.79-.05v-.41h-.49a.74.74,0,0,1,.12-.46q.12-.15-.12-.36v.41c0,.21-.12.24-.37.1a.58.58,0,0,1-.36-.51,7.15,7.15,0,0,1-.86.31c-.24.07-.57.17-1,.31,0,.34-.1.56-.31.66l-.67.36v.41q0,.21-.24.21v-.41a2.31,2.31,0,0,0-1.22.2c.24,0,.49.18.73.52-.24.14-.35.29-.3.46a.64.64,0,0,1-.19.56c.41.14.74.25,1,.31s.57.17,1,.31v.21a3.29,3.29,0,0,0,.74.3,3.54,3.54,0,0,0,1,.11v.2a3.1,3.1,0,0,0,.85-.1,2.69,2.69,0,0,1,.74-.1l.48-.41v-.83c.33.55.65.76,1,.62v.21h.49v.2a1,1,0,0,1-.67-.25c-.21-.17-.39-.09-.55.25a.72.72,0,0,0-.12.72,2.21,2.21,0,0,0,.36.72,4.58,4.58,0,0,1-1.71-.41,1.67,1.67,0,0,1-.85-.21V333h-.49v-.41a5.21,5.21,0,0,0-1.22-.26,1.27,1.27,0,0,1-1-.56,3.85,3.85,0,0,1-1.46-.21,3.44,3.44,0,0,0-1,1.44,2.47,2.47,0,0,0,0-1.85c-.16,0-.24.07-.24.2s-.08.21-.25.21a1.7,1.7,0,0,1,.13,1.08,1.3,1.3,0,0,0,.12,1,.54.54,0,0,1,.12.57,1.09,1.09,0,0,0-.12.46c0,.07,0,.1.12.1a.53.53,0,0,0,.36.11v.41h-.73l.73.61c-.4-.13-.63-.11-.66.05a2.12,2.12,0,0,0-.07.57h.25a3.41,3.41,0,0,0,0,1.85,3.21,3.21,0,0,1,0,1.74,2.54,2.54,0,0,1,.24,1.24,19.76,19.76,0,0,0,.85,3.54,15.79,15.79,0,0,0,1.59,3.34.52.52,0,0,0,.73,0V349a3.31,3.31,0,0,0,2.32-.21,1.14,1.14,0,0,0,0-1.23.36.36,0,0,1-.25-.1.3.3,0,0,1-.18-.05.24.24,0,0,0-.18,0,.81.81,0,0,1,.12-.41.83.83,0,0,0,.12-.41h-.24a1.16,1.16,0,0,0-.49-.83,3.2,3.2,0,0,0-.73.83.93.93,0,0,0,.24-.47c0-.1.08-.22.25-.36-.25-.54-.45-1-.61-1.49s-.37-.94-.61-1.48a4.68,4.68,0,0,0-.49-.36,2.13,2.13,0,0,1-.49-.47l.73.62a2,2,0,0,0-.3-1.08,3.94,3.94,0,0,0-.67-.77h.49l.24-.62a1.08,1.08,0,0,0-.73.21c-.17-.34-.31-.65-.43-.92a5.08,5.08,0,0,0-.55-.93.71.71,0,0,0,.37.21.73.73,0,0,1,.36.2,1.36,1.36,0,0,1,.25.88c0,.37.24.49.73.35v1a1,1,0,0,1,.24.57.59.59,0,0,0,.25.46,1.47,1.47,0,0,1,.3.56.77.77,0,0,0,.43.47H259a7.28,7.28,0,0,1,.55.87,3.64,3.64,0,0,0,.43.67l.24.41c0,.07,0,.1.12.1a.55.55,0,0,0,.37.1v1.24c.4-.14.65-.14.73,0a1.85,1.85,0,0,0,.36.41.7.7,0,0,0,.37.2.74.74,0,0,1,.37.21.57.57,0,0,1,.48-.62c.33-.07.41-.27.25-.61-.33,0-.49.13-.49.41a2.35,2.35,0,0,1,.12-.83,2.25,2.25,0,0,0,.12-.82,2,2,0,0,0,1.47.21.77.77,0,0,0,.24-.62v.82a.39.39,0,0,1-.12.31.39.39,0,0,0-.12.31c-.49.21-.41.41.24.62v-.62l.24.21v.61c0-.2-.12-.29-.36-.26a.71.71,0,0,1-.61-.15v.41a3.61,3.61,0,0,0-1.71,1.23v.41a.8.8,0,0,1,.49.83h.49v1a.94.94,0,0,1,.55.26c.2.17.1.26-.31.26-.24.41-.1.72.43.92s.79.52.79.93-.16.41-.49.41l1,.31c.24.06.57.17,1,.3a1.24,1.24,0,0,1,.49.11,1.38,1.38,0,0,0,.49.1,1.8,1.8,0,0,0,.91.2,3.56,3.56,0,0,1,1.16.21h3.17V354a5.32,5.32,0,0,1,1.1.11,4,4,0,0,0,.85.1,3.37,3.37,0,0,1,1.1-.21,3.33,3.33,0,0,0,1.09-.2v-1.23a1,1,0,0,0,.13.46.5.5,0,0,1-.13.56h.92a1.07,1.07,0,0,0,.67-.2,4.22,4.22,0,0,0,1.46-.62,1.1,1.1,0,0,1,.73-.2l.55-.31a.83.83,0,0,1,.43-.1V352h.24v-.21a8.2,8.2,0,0,1,.79-.36,1.37,1.37,0,0,0,.67-.46h.49a1,1,0,0,1-.12.52,1,1,0,0,0-.12.51.77.77,0,0,1,.24.62,20.23,20.23,0,0,0-.24,3.13v5a.79.79,0,0,1,.67-.1,1.77,1.77,0,0,1,.55.31.39.39,0,0,1,.12-.31.39.39,0,0,0,.12-.31h.85a1.57,1.57,0,0,1-.3-.31,1.43,1.43,0,0,0-.31-.31,3.18,3.18,0,0,1,.86.82v.42c.48.13.77,0,.85-.26a1.91,1.91,0,0,1,.37-.77q0-.21.48-.21c0-.13,0-.2-.12-.2s-.12-.07-.12-.21l.49-.41-.25.41a1.11,1.11,0,0,0,.73.21,1.86,1.86,0,0,1-.48.31.46.46,0,0,1-.49-.11l-.37.47a.55.55,0,0,0-.12.35.58.58,0,0,0-.24.42v.41h.73v-.41l.24.2v-.62c0,.14,0,.21.13.21s.12.07.12.21h.48v.2l-.12-.1A.3.3,0,0,1,288,361a.24.24,0,0,0-.18,0c0,.47-.25.61-.73.41a1.43,1.43,0,0,1-.37.77c-.24.3,0,.46.61.46l-.24-.41a.3.3,0,0,1,.18.05.24.24,0,0,0,.18.05l.12.1a.64.64,0,0,0,.19-.56c-.05-.17.06-.26.3-.26a1.37,1.37,0,0,1-.36.77c-.25.31-.05.46.6.46v-.2a.4.4,0,0,1,.37.2,1.55,1.55,0,0,0,.37.42.84.84,0,0,0-.55-.21,1.33,1.33,0,0,1-.67-.21v.83q.48,0,.48.51a3.76,3.76,0,0,0-1,.62c-.08,0-.12,0-.12.1a.39.39,0,0,0-.12.31v-.62a1.53,1.53,0,0,0,1-.41h-.49v-.51l-.24-.21-.24-.2h.24a.55.55,0,0,1,.12-.42.29.29,0,0,1,.12-.2h-.48a.77.77,0,0,0-.49.2v.42l-.12-.11a.26.26,0,0,1-.19-.05.3.3,0,0,0-.18-.05v.92l.24-.3v.3h-.73v-.71h-.85V363a.5.5,0,0,0-.24-.46,4.1,4.1,0,0,1-.49-.36v-.21a2.47,2.47,0,0,1-1,.21c-.16.34-.28.61-.36.82a2.54,2.54,0,0,1-.37.62.27.27,0,0,0,.12.2.56.56,0,0,0,.37.1,2.38,2.38,0,0,1-.73-.51.8.8,0,0,0,0,.87,7.25,7.25,0,0,0,.49.67,1,1,0,0,1,.24.62,1,1,0,0,0,.24.61c.41,0,.59-.12.55-.36a1.42,1.42,0,0,0-.3-.66c.16.13.24.24.24.3s.08.18.24.31v.41l-.24.41.24.21a.76.76,0,0,0,.25.62c0,.13-.08.2-.25.2s-.24.07-.24.21h.73v.1c0,.07-.08.17-.24.31h.49l-.25.2h.49c-.16,0-.24.14-.24.41h.24v.41h.85a.92.92,0,0,0-.3.42.91.91,0,0,1-.31.41l.13.1c.16.14.24.24.24.31l-.85.05c-.41,0-.49-.12-.25-.46.57-.14.67-.22.31-.26a1.08,1.08,0,0,1-.8-.36v-.62h-.24l.24-.2-.48-.21a.29.29,0,0,1,.12-.2.42.42,0,0,1,.06-.21.39.39,0,0,0,.06-.2l-.49.2a1.63,1.63,0,0,0,.25-.82c-.17-.14-.25-.24-.25-.31v-.1a2,2,0,0,1-.24-1,1.34,1.34,0,0,1-.37-.46.5.5,0,0,1,.13-.56,3.45,3.45,0,0,1-.43-.42.71.71,0,0,0-.55-.2,1.56,1.56,0,0,0-.61.1c-.16.07-.36.17-.61.31a2.62,2.62,0,0,1-1.28.1,3.38,3.38,0,0,0-1.4.11.69.69,0,0,0-.43-.21.69.69,0,0,1-.42-.21v.42h-.25v-.21c-.32-.27-.48-.48-.48-.62l-.25-.3v.71h-1.46q.24-.19.24-.3v-.11q0-.3-.48-.3h1.46l-.73-1.24a2.38,2.38,0,0,1-.25-1.08v-2.41a10.34,10.34,0,0,1-1.46-.1,10.36,10.36,0,0,0-1.46-.11,3.5,3.5,0,0,1-1.47.11,11,11,0,0,0-1.58-.11,3.45,3.45,0,0,1-1.46.11,10.36,10.36,0,0,0-1.46-.11c-.49,0-1,0-1.47-.05a3.15,3.15,0,0,0-1.46.26c-.16-.14-.24-.24-.24-.31v-.1c0,.34-.15.43-.43.26a1.6,1.6,0,0,0-.79-.26,5.79,5.79,0,0,1-1.89.1c-.61-.06-1.24-.1-1.89-.1.16.14.24.24.24.31v.1a1,1,0,0,0-.67-.36,7.61,7.61,0,0,0-.79-.05l.24.2h-1a18.51,18.51,0,0,0,.12,2.16,18.76,18.76,0,0,1,.12,2.16h.24a2.37,2.37,0,0,0,0,1.49,4.12,4.12,0,0,1,.25,1.49,5.12,5.12,0,0,1,.36.51,1,1,0,0,1,.13.51l.73,1.24a4.47,4.47,0,0,0,1.46,2.05.87.87,0,0,1,1-.56,1.83,1.83,0,0,0,1.34-.47c0-.27.08-.34.24-.2s.35.07.31.2a.3.3,0,0,1-.31.21,2.35,2.35,0,0,0-1,.21c-.28.13-.63.27-1,.41,0,.13-.08.2-.25.2h-.48a6.82,6.82,0,0,1,1,1,3,3,0,0,0,1,.77.39.39,0,0,0,.12.31c0,.07,0,.1.12.1a.72.72,0,0,0,.49.2h.12a4.3,4.3,0,0,0,1.52,1.29l1.89,1a.29.29,0,0,1,.19.06.3.3,0,0,0,.18.05l.12.1c.25.13.45.24.61.31a1.77,1.77,0,0,0,.61.1,1.08,1.08,0,0,0,.73.2,1.59,1.59,0,0,0,.86.37,3.23,3.23,0,0,1,1,.25,1.59,1.59,0,0,1,.61.1,1.51,1.51,0,0,0,.61.11,1.08,1.08,0,0,0-.73.2H271a2.33,2.33,0,0,1,.12-.82,2.49,2.49,0,0,1,.36-.62c-.4,0-.53-.13-.36-.41a1.62,1.62,0,0,1,.61-.61c-.17.34-.15.6.06.77a4.16,4.16,0,0,0,.67.46v.2h.24a1.08,1.08,0,0,1-.24.83,3.71,3.71,0,0,1,1,.61.38.38,0,0,0,.25-.1c.16-.14.24-.24.24-.31a.26.26,0,0,1,.12-.2.42.42,0,0,1,.06-.21.44.44,0,0,0,.07-.2.74.74,0,0,0,.12.46.56.56,0,0,1,.12.36,3,3,0,0,1,1.1.2,1.46,1.46,0,0,0,1.09,0h.25c0-.27.12-.41.36-.41l-.36-.2v.41h-.25a.53.53,0,0,1,.25-.41.55.55,0,0,0-.37.1.53.53,0,0,1-.36.1.39.39,0,0,1,.12-.31.38.38,0,0,0,.12-.3c0,.13,0,.2.12.2a.74.74,0,0,1,.37.21.82.82,0,0,0,.42-.11.88.88,0,0,1,.43-.1l.24-.62-.73.21a1.47,1.47,0,0,1,.73-.41,1.28,1.28,0,0,0-.12-.56,1.16,1.16,0,0,1-.12-.47,6.83,6.83,0,0,1-.85,0c-.33,0-.49,0-.49.26h-.49v.2h-.36a.27.27,0,0,0,.12-.2l.49-.41a.58.58,0,0,0,.24-.41v-.41a1.5,1.5,0,0,0-1-.41v-.21h-.24v-.21c-.24-.13-.45-.23-.61-.3a1.51,1.51,0,0,0-.61-.11V372h-.73a.91.91,0,0,0-.55-.88,2.67,2.67,0,0,1-.91-.66c-.65,0-1,.17-1,.51a.56.56,0,0,1,.12-.36.57.57,0,0,0,.13-.36,1.66,1.66,0,0,0-.86-.36c-.32,0-.61-.05-.85-.05a1,1,0,0,0-1-.62,4.16,4.16,0,0,1-1.35-.2c0,.34.13.53.37.56a1.25,1.25,0,0,1,.61.26h-1c0-.14,0-.2-.12-.2s-.12-.07-.12-.21c-.41,0-.51.09-.3.26a.74.74,0,0,1,.3.56h-.49v.21h-.73v-.41a.55.55,0,0,0-.43-.62c-.28-.07-.3-.27-.06-.62,0,.07,0,.11.13.11a.59.59,0,0,0,.36.1q-.12-.21.12-.36c.17-.1.35-.21.55-.31a1,1,0,0,0,.43-.36c.08-.13,0-.27-.12-.41a.39.39,0,0,1,.12-.31c0-.06,0-.1.12-.1a.38.38,0,0,1-.43-.31,2.67,2.67,0,0,1-.06-.51c0,.14.08.24.25.31a.33.33,0,0,1,.24.3,5.57,5.57,0,0,0,1-.41l.73-.41h.48a2.85,2.85,0,0,0,.67-.1,3,3,0,0,1,.67-.1,1.93,1.93,0,0,1-.91.72,1.87,1.87,0,0,0-.91.72h-.25a3.47,3.47,0,0,1,.37.51q.12.21-.12.51a.78.78,0,0,0,.12.41.83.83,0,0,1,.12.41,1.61,1.61,0,0,0,.3-.3,1.72,1.72,0,0,1,.31-.31c0,.14,0,.2.12.2a.74.74,0,0,1,.37.21,2.52,2.52,0,0,0,1.22.82v.21a5.3,5.3,0,0,0,.85.36,1.89,1.89,0,0,1,.85.56,1.1,1.1,0,0,0,.73.21c.17.13.25.24.25.3s.08.18.24.31a2.18,2.18,0,0,1,1.22.21v.2a1.57,1.57,0,0,1,1,.41,1.43,1.43,0,0,1,.73.42v.2h1.09v.41h.49l-.24.21h.49a.53.53,0,0,0-.25.41v.41a.55.55,0,0,0,.67-.05.36.36,0,0,0,.06-.57h.25a.94.94,0,0,1,.73-.1,2.62,2.62,0,0,0,.73.1c0-.54-.17-.82-.49-.82v-.82h-.73V372h-.24a.77.77,0,0,0,.12-.72,1,1,0,0,1,.12-.82v.92a.77.77,0,0,1,.24.62h.25v.41h.49a4.16,4.16,0,0,1-.06.67q-.07.36.54.36a.57.57,0,0,0-.06.66.35.35,0,0,0,.55.16,2.53,2.53,0,0,1-.24,1.23v-.62a2.16,2.16,0,0,0-1.22.21v.41a.63.63,0,0,1-.37-.1c-.08,0-.12,0-.12-.11v.83a4.14,4.14,0,0,0,1.46.2,1.45,1.45,0,0,1-.06.41q-.06.21-.42.21a.37.37,0,0,0,.12.31.29.29,0,0,0,.12.2c0-.2.16-.44.49-.72h.49l.24.41a1.94,1.94,0,0,0,1.52.21,6.93,6.93,0,0,1,1.77-.21,1.14,1.14,0,0,1,.73-.2h.49v-.21h.49v-1a.88.88,0,0,0-.67-.56,7.8,7.8,0,0,0-.8-.05v-1a.4.4,0,0,0-.12-.31.36.36,0,0,1-.12-.3,2.17,2.17,0,0,1-.37-.78c-.08-.3-.32-.39-.73-.25v-.62a2,2,0,0,1,.25-.82v.62h.24a8.37,8.37,0,0,0,.43.82,6.79,6.79,0,0,0,.42.62h.49a.76.76,0,0,1,.49.2v-.41l.24.21v-.62c0,.07,0,.1.12.1a.56.56,0,0,0,.37.1V372a.72.72,0,0,0,.49.2h.48l-.73,1.24c-.16.13-.34.3-.55.51s-.18.38.07.51v-.2a.55.55,0,0,1,.24-.41c.41,0,.55.13.43.41a1.6,1.6,0,0,0-.19.61,1.12,1.12,0,0,1,.43.62,3.18,3.18,0,0,1,.06.62c-.32,0-.49.13-.49.41h.73a8.15,8.15,0,0,0,1.89-.57,16.91,16.91,0,0,1,1.77-.67,13.64,13.64,0,0,1,2.32-1v-.62a3.35,3.35,0,0,0,.79-.1c.28-.07.43-.31.43-.72h-.12c-.09,0-.13-.07-.13-.21a1.24,1.24,0,0,1,.49.11.45.45,0,0,0,.49-.11c.65-.2,1-.54,1-1a.56.56,0,0,0,.37-.11.59.59,0,0,1,.36-.1v-.61a1.26,1.26,0,0,0-1.46-.31,1.77,1.77,0,0,0-1-.11,3.68,3.68,0,0,1-1,.11v-.41a.54.54,0,0,0,.86.15,3.63,3.63,0,0,1,1.09-.56l.49.2v-.41a1.47,1.47,0,0,1,.73.41.32.32,0,0,1,.24-.36,2.81,2.81,0,0,1,.49-.05V369a1.55,1.55,0,0,1,1,.41c0-.14-.17-.34-.49-.62a1.45,1.45,0,0,0-.67-.2h-.55a1.05,1.05,0,0,0-.24-.82h.24v.61l.24.21.25-.52.24.31h1.22c.24-.34.47-.66.67-1a6,6,0,0,0,.55-1.08,28.22,28.22,0,0,0,1-3.39,15.69,15.69,0,0,0,.37-3.49,15.51,15.51,0,0,1,.12-1.9,17.28,17.28,0,0,0,.12-2.11,1.79,1.79,0,0,1-.12-1.13,1.79,1.79,0,0,0-.12-1.13,3.26,3.26,0,0,1,.12-.92,2.69,2.69,0,0,0,.12-.72,2.32,2.32,0,0,1-.12-1.28,7.38,7.38,0,0,0,.12-1.29v-4.31c0-1,0-1.94-.12-2.93a11.94,11.94,0,0,1,.12-2.93,2.18,2.18,0,0,1-.12-1.23,6.92,6.92,0,0,0,.12-1.33h-.24a2.22,2.22,0,0,0,.12-1.24,2.18,2.18,0,0,1,.12-1.23h-.48q0-.21.12-.21h.12v-1.23q0,.21-.24.21h-.25v-.41a1,1,0,0,1-.73.36c-.32,0-.61.05-.85.05v-.11c0-.06.08-.17.24-.3,0,.06,0,.1.12.1a.56.56,0,0,0,.37.1,1.57,1.57,0,0,0,.3-.31,1.78,1.78,0,0,1,.31-.3h.73V326.5a5.88,5.88,0,0,1,.24-1.65h-.24v-1a1.67,1.67,0,0,1-.12-1.08,5.25,5.25,0,0,0,.12-1.08,2.5,2.5,0,0,1-.12-1.34,8,8,0,0,0,.12-1.33.76.76,0,0,1-.12-.72.77.77,0,0,0-.12-.72h-.73c-.17.21-.33.43-.49.67a1.8,1.8,0,0,1-.61.56l-.25-.2a.18.18,0,0,1-.06.15.21.21,0,0,0-.06.16l-.12.1v-.62a.71.71,0,0,1,.37-.2h.12l.73-1.23h.85v-.52h-.48c.16-.13.24-.24.24-.31s.08-.17.24-.3c0-.55-.08-.89-.24-1a2.22,2.22,0,0,0-.61-1.44,2.9,2.9,0,0,0-.49-1.44,3.28,3.28,0,0,0-.49-1c-.24-.41-.48-.83-.73-1.24a4.63,4.63,0,0,0-1-1.13.21.21,0,0,1-.06.16.18.18,0,0,0-.06.15l-.13.1a3.92,3.92,0,0,1-1.46-.2,2.47,2.47,0,0,0-.24-1.23c.4-.35.4-.62,0-.83a2.76,2.76,0,0,0-.8-.77,2.23,2.23,0,0,0-1.15-.25c-.17,0-.23-.11-.18-.31s-.07-.24-.31-.1V305h-.85a.5.5,0,0,0-.25-.46.92.92,0,0,0-.48-.16,4.45,4.45,0,0,1-1.1-.51,2.07,2.07,0,0,0-1.1-.31c.33.28.33.55,0,.82a.79.79,0,0,1,.25.62h1v.21l-.49-.21v.62h-.24a1.12,1.12,0,0,0-.24.72v.72H291a.93.93,0,0,0-.13-.52,1,1,0,0,1-.12-.51,3.59,3.59,0,0,0,.73.82v-1h.25c0,.55.24.82.73.82v-1a5.68,5.68,0,0,1,.43.41.85.85,0,0,0,.67.2.93.93,0,0,0-.61.83v1h-.49l-.49.41.49.41q.24-.19.24-.3c0-.07.08-.11.25-.11a1.71,1.71,0,0,1-.12.62.57.57,0,0,0,.12.62c.16.13.16.2,0,.2a.77.77,0,0,1-.49-.2.56.56,0,0,1,.12-.36.78.78,0,0,0,.12-.47.92.92,0,0,1-.61-.2.89.89,0,0,0-.61-.21,1.31,1.31,0,0,0-.12.93,1,1,0,0,1-.12.82c-.24.34-.43.34-.55,0a1.71,1.71,0,0,0-.42-.72,3.43,3.43,0,0,0-.74-.82c-.32-.27-.48-.48-.48-.62-.17.14-.25.24-.25.31s-.08.17-.24.31a.74.74,0,0,0,.06-.77.76.76,0,0,0-.79-.46,2.2,2.2,0,0,0,1.22-.21v.62a.53.53,0,0,0,.36-.11.61.61,0,0,1,.37-.1.55.55,0,0,1-.37-.1c-.08,0-.12,0-.12-.1v-.21h.49a2.67,2.67,0,0,0-.06-.51c0-.21.06-.31.3-.31a1.44,1.44,0,0,0,.25-1h.24a1.11,1.11,0,0,0-.49-.82,2.4,2.4,0,0,1,.06-.56c0-.17-.06-.33-.3-.47v.11c0,.06-.08.17-.25.3l-.12-.1a.24.24,0,0,1-.18,0,.3.3,0,0,0-.18-.05v-.41l-1.1-.36-1.1-.36a1.74,1.74,0,0,1-.55-.1,2,2,0,0,0-.67-.11,3.77,3.77,0,0,0-1.16-.2,3.51,3.51,0,0,1-1.15-.21,4.17,4.17,0,0,0-1.59-.1,5.48,5.48,0,0,1-1.83-.1Zm-9.27,11.29a1.4,1.4,0,0,0-.73.42,4.9,4.9,0,0,1-.73,1h.49v.62a.75.75,0,0,1-.25-.62c-.4.14-.63.33-.67.57a3.47,3.47,0,0,1-.3.87l-.24-.2a3.15,3.15,0,0,1-.25,1.33,4.69,4.69,0,0,1-.73,1l-.24.2v-.82a.82.82,0,0,0,.42-.1l.55-.31V315.4h.25a3.25,3.25,0,0,0,.42-.71,1.57,1.57,0,0,1,.79-.72,3.54,3.54,0,0,1,.49-.52,4,4,0,0,0,.49-.51c.16,0,.24.07.24.2m2.44,29.94c.32-.1.28-.22-.12-.35-.25.34-.21.46.12.35m13.29-18.89a1.16,1.16,0,0,0-.61.25v1h1a1.41,1.41,0,0,0,1.34-.62V324a.93.93,0,0,0-.61-.2h-.73q0,.3-.36.36M276,315.56a6,6,0,0,0,1.16-.57H279a5.77,5.77,0,0,1,1.59.21v.2a1.57,1.57,0,0,1,1,.21v.21a.41.41,0,0,1,.37.2,1.49,1.49,0,0,0,.36.41,3.73,3.73,0,0,1,1,2.47v2.56h.24a3.28,3.28,0,0,1-.12.93,3.26,3.26,0,0,0-.12.92,4.21,4.21,0,0,1,.85.11,1.21,1.21,0,0,0,.85-.11.28.28,0,0,1,.13-.2.56.56,0,0,0,.24-.41h-.61a1,1,0,0,0,.3-.41,1,1,0,0,1,.31-.42.85.85,0,0,0,.43-.41,1.4,1.4,0,0,0,.06-.41q.24,0,.24.21c-.16,0-.24,0-.24.1s-.09.17-.25.31a2.47,2.47,0,0,1-.24,1.23,5.89,5.89,0,0,0,.61.31,1.53,1.53,0,0,0,.61.1,1.49,1.49,0,0,0,.36-.41,1.93,1.93,0,0,1,.37-.41v.41h.49c.24.35.22.55-.06.62a1.55,1.55,0,0,0-.67.31h-.74v.41a1,1,0,0,0-.24.61,1,1,0,0,1-.24.62h2v-.2a1.14,1.14,0,0,0,.73.2v-.82l.24.2c.25-.47.25-.82,0-1a1.84,1.84,0,0,0-.36-.26,1.33,1.33,0,0,1-.37-.26,1.64,1.64,0,0,0-.24-.82h.48a.77.77,0,0,0,.49-.2,11,11,0,0,0-.06-1.18A1.51,1.51,0,0,1,289,320a.39.39,0,0,1,.12-.31.39.39,0,0,0,.12-.31,2.3,2.3,0,0,0-.24,2.46.37.37,0,0,0,.12.31.4.4,0,0,1,.12.31h1.22c0,.41-.24.62-.73.62a.56.56,0,0,1-.12.36.52.52,0,0,0-.13.36h-.24a1.66,1.66,0,0,1-.12.61,2.35,2.35,0,0,0-.12.83l-.49-.21a.39.39,0,0,0,.12.31.39.39,0,0,1,.12.31l-.49-.21a.36.36,0,0,0,.13.31c0,.07,0,.1.12.1h-1.46v-.2l-.74-.21c.17.41,0,.58-.42.51a9.23,9.23,0,0,0-1.16-.1.76.76,0,0,1-.49.21.82.82,0,0,0-.49.2v-.41h-.48v5.44a9.43,9.43,0,0,1-.13,1.55,3.32,3.32,0,0,0,.13,1.54V336a5.71,5.71,0,0,1-.25,1.59,1.06,1.06,0,0,1,1,.41,5.7,5.7,0,0,1,1.95-.26q1,.06,2.07.06a.21.21,0,0,0-.06-.16.18.18,0,0,1-.06-.15l-.12-.1h1.95a1.6,1.6,0,0,0-1,.2.71.71,0,0,0-.55.21.61.61,0,0,0-.18.41q0-.21-.12-.21c-.08,0-.12-.07-.12-.2a.82.82,0,0,1-.49.2h-.49v.41a5.89,5.89,0,0,1-.61.31c-.16.07-.36.17-.61.31a2.06,2.06,0,0,1,.61-.52q.38-.19.12-.51a6.11,6.11,0,0,1-.73-.05,1.3,1.3,0,0,0-.85.26v.61l-.73.41a.69.69,0,0,1-.73,0,3.18,3.18,0,0,0-.49,1h.73a.76.76,0,0,1-.49.21h-.48a1.26,1.26,0,0,0-.49,1h-1v.41h-4.51c.17-.2.06-.37-.3-.51a3.34,3.34,0,0,1-.92-.51.77.77,0,0,0-.24-.62v.62l-1-.31a1.68,1.68,0,0,0-1,.1v.21h-1v.61h.49v-.41h.73a1.2,1.2,0,0,0,0,1.44,1.38,1.38,0,0,1,.49.1.44.44,0,0,0,.49-.1l.49-.41h.73v.41a4.47,4.47,0,0,1-.67,0c-.21,0-.31.12-.31.46l-.24-.2a.76.76,0,0,1-.12.46.56.56,0,0,0-.12.36,2.5,2.5,0,0,0-.25,1.13c-.65,0-1,.27-1,.82h-.74q-.24.21-.42.15a1,1,0,0,1-.37-.2,2,2,0,0,0-.36-.26.21.21,0,0,0-.31.1l-.24.21H270v.41a.91.91,0,0,0-.3.56c-.05.24-.19.26-.43.06a.68.68,0,0,1,.18-.88c.29-.24.1-.36-.55-.36.57-.2.86-.48.86-.82H270a1.17,1.17,0,0,1-.49-.92H270v-.62a.39.39,0,0,0-.12-.31.37.37,0,0,1-.12-.31h-.86a.68.68,0,0,0,.37.62v.62a.9.9,0,0,1-.61-.21.57.57,0,0,0-.36.1.58.58,0,0,1-.37.11,5,5,0,0,0-1-1.24h.49c0,.42.16.62.49.62v.41h.49a2,2,0,0,1,.24-1h-.73v-1.23c0,.14.16.21.49.21v-.21a.47.47,0,0,0,.48-.36,2.33,2.33,0,0,1,.37-.67h-.85v-.61a.65.65,0,0,0,.36.2h.12c.33-.34.37-.65.13-.92a1.32,1.32,0,0,1-.37-.92h-.24v-.21c-.33,0-.49-.14-.49-.41h.49a2.67,2.67,0,0,0-.25-1.34,1.42,1.42,0,0,0-.67-.2.82.82,0,0,1-.55-.21l-.48.41v-.2a.39.39,0,0,1,.12-.31.39.39,0,0,0,.12-.31h-.24a.41.41,0,0,0-.13-.31.36.36,0,0,1-.12-.3,1.88,1.88,0,0,0,.25,1,1.24,1.24,0,0,1-.8-.36c-.28-.24-.5-.18-.67.16a.39.39,0,0,0-.12-.31.39.39,0,0,1-.12-.31,1.34,1.34,0,0,0-.67-.2.82.82,0,0,1-.55-.21c.24-.34.57-.34,1,0a1.18,1.18,0,0,0,.73-.2.53.53,0,0,0-.25.41v.41a4.47,4.47,0,0,0,.67-.05c.21,0,.39-.23.55-.57a.53.53,0,0,1-.36-.1c-.08,0-.12,0-.12-.1h.73v.41a1.59,1.59,0,0,1,.61.1c.16.07.36.17.61.31,0,.13,0,.2.12.2s.12.07.12.21a5,5,0,0,0,.61.31l.73.3a1.49,1.49,0,0,1,1,.42,4.45,4.45,0,0,1,1.1.51c.33.2.69.41,1.1.62l-.25-.42a1,1,0,0,1,1,.42h-.49v.2h-.73a1.75,1.75,0,0,0-1.28-.92,7.91,7.91,0,0,0-1.77-.21,1.13,1.13,0,0,0,.86,1.13c0,.07-.05.1-.13.1a.53.53,0,0,1-.36.11.83.83,0,0,1-.12.41c-.08.13,0,.2.12.2a3,3,0,0,0,.73.82,2,2,0,0,1,.24,1,1.72,1.72,0,0,1,.61.1,1.58,1.58,0,0,0,.61.11v.2a1.19,1.19,0,0,0,.49-.1,1.19,1.19,0,0,1,.49-.1.41.41,0,0,1,.55-.16.66.66,0,0,0,.67-.05.77.77,0,0,0,.24-.62.38.38,0,0,0-.12-.3.39.39,0,0,1-.12-.31h-.49a.58.58,0,0,0,.37-.11c.08,0,.12,0,.12-.1l.73-.61h-1.46v-.41h.24l.24-.21a1.55,1.55,0,0,1,1,.41,2.65,2.65,0,0,0,.12-1.39,9,9,0,0,1-.12-1.38,5.51,5.51,0,0,0,.24-1.54v-1.34a8.77,8.77,0,0,1-.12-2.51,8.83,8.83,0,0,0-.12-2.52,2.62,2.62,0,0,0-.73.1.9.9,0,0,1-.73-.1q0-.21.24-.21h.24v-.61a2.09,2.09,0,0,0,.49.31,1.85,1.85,0,0,1,.49.3,30.46,30.46,0,0,0,.12-4.67,27.51,27.51,0,0,1,.12-4.47,2.33,2.33,0,0,1,.12-.82,6.26,6.26,0,0,1,.37-.72,1.51,1.51,0,0,1,.91-.87m-5.3.46a.78.78,0,0,0-.24-.62h1.46a2.54,2.54,0,0,0-.24,1.24l-.49-.41a2.62,2.62,0,0,1-.49.72h.49a2.83,2.83,0,0,1,.49,1.23h.24v.2a2.51,2.51,0,0,1-1.22-.82H270c-.08,0-.12,0-.12.11a.36.36,0,0,0-.12.3c-.57-.2-.86-.13-.86.21l-1.46.61v-.41c.25.14.43.14.55,0a4.31,4.31,0,0,1,.43-.41c0-.27.16-.41.48-.41H270c-.16-.13-.24-.24-.24-.31v-.1H270a1.6,1.6,0,0,0,.37-.46,1.31,1.31,0,0,1,.36-.46c-.32,0-.49-.07-.49-.21Zm-1.16,2.31q-.54.15-.06-.15.62,0,.06.15m-10.3,5.19a.44.44,0,0,1,.49.1q.24.21-.12.36c-.24.1-.37,0-.37-.15-.16-.14-.16-.24,0-.31m1.22,5.08c.41,0,.77-.05,1.1-.05l.24.21h-1.15a3.77,3.77,0,0,0-1.16.2,1.77,1.77,0,0,1,1-.36m38.16,4h1a.3.3,0,0,0-.18.05.31.31,0,0,1-.19.05l-.12.1a.3.3,0,0,0-.18.05.24.24,0,0,1-.18.06l-.12.1Zm-6,2.67v.82c.17,0,.27,0,.31.1s.14.11.3.11a1.3,1.3,0,0,0-1.34.3.91.91,0,0,1-1.22.11v.51c0,.07,0,.1-.12.1a.53.53,0,0,1-.36.11,1.41,1.41,0,0,1-.74-.42h.74v-.51a.36.36,0,0,0,.24.1.78.78,0,0,0,.49.11v-.41l.48.41c.25-.14.45-.24.61-.31a5,5,0,0,0,.61-.31Zm-.24,4.41c0,.07.28.21.85.41-.16,0-.26,0-.3.11s-.14.1-.31.1c.33.21.43.43.31.67s0,.36.3.36h-.61c.17-.21.17-.38,0-.52a3,3,0,0,1-.48-.51l-.25.41v-.2a.57.57,0,0,0-.49-.16c-.16,0-.32-.05-.48-.26a4.13,4.13,0,0,0,1.46-.41m-7.8.21a2.77,2.77,0,0,0,.73.41,1.23,1.23,0,0,0-.92-.05c-.28.1-.5,0-.67-.36h.49c-.08,0-.12,0-.12-.1a.39.39,0,0,1-.12-.31,4.6,4.6,0,0,1,.61.41m-20.11-.21v.21a1.4,1.4,0,0,0,.73.41l-.49.41h.49v.21l-.12-.11a.26.26,0,0,1-.19,0,.3.3,0,0,0-.18-.05v.41c-.16,0-.24-.07-.24-.2v-.21c-.41,0-.59-.12-.55-.36a4.06,4.06,0,0,0,.06-.67Zm28.4,2.26h.61v.41c0,.14-.08.21-.25.21v.21h-.36c0,.2-.08.32-.25.35a1.27,1.27,0,0,0-.48.26.74.74,0,0,1,.12-.46.56.56,0,0,0,.12-.36h.49Zm-18,2.78v.41a.34.34,0,0,1-.49,0,.58.58,0,0,1-.24-.41c0-.21.24-.21.73,0m17.79,14,.43.52a.76.76,0,0,1,.18.51c-.73,0-1.09-.34-1.09-1Zm1.22,1.91a.84.84,0,0,1,.12,1h.49c0,.07,0,.1-.12.1a.56.56,0,0,1-.37.11,1.47,1.47,0,0,0,.73.41.89.89,0,0,1,.25.56.62.62,0,0,0,.24.47c0,.13,0,.2.13.2h.12v.51H296c-.09,0-.13,0-.13.11a.38.38,0,0,0-.12.3H296v.21h.24v.41c0-.13.16-.2.48-.2l.74,1.23h.73l-.25.2h.74l-.25.21c.49,0,.73.2.73.61a1.45,1.45,0,0,0-.67-.2.84.84,0,0,1-.55-.21.21.21,0,0,1-.06.16.19.19,0,0,0-.06.15l-.12.1v-.61l-.12-.1a.24.24,0,0,1-.18-.06.36.36,0,0,0-.19-.05l-1.09-.36a.86.86,0,0,0-.86.16.5.5,0,0,0,.13.41.23.23,0,0,0,.12.2h.73a.77.77,0,0,0,.24.62,1.84,1.84,0,0,0-1.22-.41v.62a.78.78,0,0,1-.24-.62,1.28,1.28,0,0,1-.49-1h1c-.17-.13-.25-.24-.25-.31s-.08-.17-.24-.3a.78.78,0,0,0-.12-.47.52.52,0,0,1-.13-.36c.25-.13.35-.3.31-.51a1.36,1.36,0,0,0-.31-.61c-.08,0-.12,0-.12-.11a.39.39,0,0,1-.12-.31,1.23,1.23,0,0,1-.49-.1c-.16-.07-.16-.17,0-.31h-.48c-.17,0-.25-.06-.25-.2v-1h-.36v-.82h.61a.31.31,0,0,1-.13-.21c-.08-.06-.12-.2-.12-.41a3.2,3.2,0,0,0,.61.88m3.78-.47h.49a.58.58,0,0,1,.24.41.56.56,0,0,0,.25.42.39.39,0,0,1,.12-.31.39.39,0,0,0,.12-.31h.24a1,1,0,0,1-.12.51,5.07,5.07,0,0,1-.36.52h-.49a2.49,2.49,0,0,1,.06-.57c0-.17-.14-.19-.55-.05Zm-4.75,2.06a.72.72,0,0,0,.48.2,1.27,1.27,0,0,1,.61.21,1.46,1.46,0,0,0-.3.72c0,.27.14.48.55.61a7.21,7.21,0,0,1,.36.93,3.26,3.26,0,0,1,.12.92H294a.54.54,0,0,1,.12-.41c0-.07,0-.13.13-.2H294a.39.39,0,0,0-.12-.31.39.39,0,0,1-.12-.31,2.63,2.63,0,0,0-.24-1.13,3.23,3.23,0,0,1,.12-.77c.08-.31-.16-.39-.73-.26Zm4.26.82a1.06,1.06,0,0,0,1-.41c-.25.41-.17.62.24.62a1.66,1.66,0,0,1-.12.61c-.08.21-.2.14-.37-.2a4.36,4.36,0,0,1-1.46-.41V363a.76.76,0,0,0,.49.21h.24Zm-40.47-2.57a5,5,0,0,1,.61.31v.82l-.73-.61c0-.14-.16-.35-.49-.62a1.53,1.53,0,0,1,.61.1m28.47,3.29q.06.1-.06.15a.75.75,0,0,1-.31.05q-.18,0-.06-.3c.24,0,.38,0,.43.1m1.15,1.64v1.23h-.48a2.53,2.53,0,0,1,.24-1.23Zm-8.41,0a2.55,2.55,0,0,1,.19,1.64,3.19,3.19,0,0,0,.06,1.65c-.33-.27-.49-.48-.49-.62a1.11,1.11,0,0,0-.49-.82.56.56,0,0,0,.37-.1.53.53,0,0,1,.36-.11Zm-14.62,2.06a3.25,3.25,0,0,0,1.46,1.43,4.07,4.07,0,0,1-1.46-.41.6.6,0,0,0-.12-.36c-.09-.1-.21-.25-.37-.46h-1l.25.21a5.84,5.84,0,0,1-.73-.05.61.61,0,0,0-.61.25c-.17-.13-.25-.24-.25-.31s-.08-.17-.24-.3A1.4,1.4,0,0,0,261,367l-.24.42a6.26,6.26,0,0,1,1.16.1,1.35,1.35,0,0,0,.91-.1.4.4,0,0,1-.37-.21.39.39,0,0,0-.36-.21.93.93,0,0,1,1.22.42m-24,10.22c.32-.18.28-.26-.13-.26-.24.34-.2.42.13.26m11.45-9.2c0-.2-.16-.31-.48-.31s-.49.11-.49.31a.67.67,0,0,0,1,0m-24.25-36.87c-.49.21-.49.41,0,.62a.36.36,0,0,0,0-.62m-24.26-16.95c-.16,0-.28.14-.36.41a.52.52,0,0,0,.12.62c.49-.21.57-.55.24-1m6.09-9.8a.61.61,0,0,0-.6.25,1.57,1.57,0,0,0-1-.41v.21c-1,0-2,0-3.11.1a15.89,15.89,0,0,1-3.11-.1,1.12,1.12,0,0,1-.12.46,1.31,1.31,0,0,0-.12.56,27.51,27.51,0,0,1,.12,4.47,27.51,27.51,0,0,0,.12,4.47,3.15,3.15,0,0,1-.06.61.65.65,0,0,0,.31.62v.21l.12-.11a.2.2,0,0,1,.06-.15.19.19,0,0,0,.06-.15h.49a5.52,5.52,0,0,0,.43-1.8,9.91,9.91,0,0,1,.3-1.9c-.16,0-.24,0-.24-.11s-.08-.1-.25-.1v-.61H202a3.18,3.18,0,0,1,.3,1.54c0,.48-.06,1-.06,1.54a.76.76,0,0,0,.49-.21v2.06c.32,0,.48-.14.48-.41h.37v.61l-.61-.2c0,.27-.24.41-.73.41.16,0,.25.07.25.2v.21a3.41,3.41,0,0,0,1.33.2v.42a1.19,1.19,0,0,1,.86-.11,4.13,4.13,0,0,0,.85.11v-.62h.24V318a7.82,7.82,0,0,1-1.33-.1,2.58,2.58,0,0,0-1.23.1v.21a.59.59,0,0,1-.36-.1c-.08,0-.12,0-.12-.11a1.93,1.93,0,0,0-.37.41c-.08.14,0,.28.13.41q.24-.19.24-.3c0-.07.08-.17.24-.31s.26,0,.31.1.14.1.3.1v.21c.32,0,.49-.07.49-.21V319h-.86a.28.28,0,0,1,.31.21,1,1,0,0,0,.3.41,2.49,2.49,0,0,0-.79.1,1.64,1.64,0,0,1-.54.1v-.41h-.25v1l.25-.21a.79.79,0,0,1-.13.41.83.83,0,0,0-.12.41.52.52,0,0,1,.31.57,3.2,3.2,0,0,0-.06.67,1.21,1.21,0,0,1-.49-.11,1.48,1.48,0,0,0-.49-.1v.41l-.24-.2a2.46,2.46,0,0,1-.25,1.23v-.41h-.49a16.58,16.58,0,0,0-.12,3.44,16.58,16.58,0,0,1-.12,3.44,47.77,47.77,0,0,1,.24,4.83v4.82a2.5,2.5,0,0,0-.12,1.34,8.1,8.1,0,0,1,.12,1.33V364a3.14,3.14,0,0,1,.13,1.49,2.15,2.15,0,0,0,.12,1.28V371a38.29,38.29,0,0,0,.24,4.26c.25,0,.39.07.43.21a.9.9,0,0,0,.3.41v-.21H202a2.14,2.14,0,0,1-.43-.92,6.36,6.36,0,0,1-.06-.92c0,.13,0,.2.12.2s.12.07.12.21a.72.72,0,0,0,.25.61v.62a.79.79,0,0,1,.67-.1,1.94,1.94,0,0,0,.54.1.36.36,0,0,1-.24.1.78.78,0,0,1-.48.1q.48,0,.48.21c-.16.14-.18.24-.06.31s.34,0,.67-.1a.38.38,0,0,0,.12.3c0,.07,0,.11.12.11v.2c-.4.14-.93.34-1.58.62h.49v.2a9,9,0,0,0,1.89.21h1.89v-.21h-1v-.61a2.18,2.18,0,0,0,.79-.16c.29-.1.35-.32.19-.66H207a.72.72,0,0,1,.49.2h.73v-.2a.54.54,0,0,0,.37-.11.53.53,0,0,1,.36-.1v.41l.13-.1a.18.18,0,0,1,.06-.15.21.21,0,0,0,.06-.16l.49.21v1.64a2.41,2.41,0,0,0,.67-.1.53.53,0,0,1,.55.1,4.6,4.6,0,0,1,1.58.2v-.2c1.38,0,2.74,0,4.08.1a26.77,26.77,0,0,0,4.09-.1,2.1,2.1,0,0,0,.24-.82v-2.88q-.24-4.31-.24-8.52V356.9l.24.2v-.82l.24.21v-.41h.25a.72.72,0,0,1,.12-.46.6.6,0,0,0,.12-.36l.25.2A1,1,0,0,1,222,355a1,1,0,0,0,.12-.51.39.39,0,0,1,.12-.31c0-.07,0-.11.12-.11a.36.36,0,0,1,.12-.3.41.41,0,0,0,.13-.31l.24.2a1.07,1.07,0,0,1,.24-.82h.25v-.41h.24a1.75,1.75,0,0,1,.12-.62A6.26,6.26,0,0,1,224,351a1.24,1.24,0,0,1,.49.93h.24a.78.78,0,0,0,.24.62.72.72,0,0,0,.25.61v.62a.59.59,0,0,0,.36-.1c.08,0,.13,0,.13-.11V354h-.25a1.26,1.26,0,0,0,.49,1v.21l.24-.21v1.44a.55.55,0,0,1,.25.41.56.56,0,0,0,.24.41,2.88,2.88,0,0,0,.49,1.59,13.56,13.56,0,0,1,.85,1.59,1.67,1.67,0,0,0,.12.62,1.72,1.72,0,0,1,.13.62,1.33,1.33,0,0,1,.73-.41c-.08,0-.12,0-.12.1a.36.36,0,0,0-.13.31h-.24a3.85,3.85,0,0,0,.12,1,8.19,8.19,0,0,0,.37,1.08h.49V363l-.49-.21a.36.36,0,0,0,.24-.1.73.73,0,0,1,.25-.15,1.43,1.43,0,0,0,.24-.16v-.61a.79.79,0,0,0-.37.2.29.29,0,0,0-.12.21v-.62c.25.21.65.21,1.22,0H230c-.16,0-.24-.07-.24-.2s.16-.41.49-.41l.24-.21-.49-.21.49-.2v-.21c0,.07,0,.11.12.11a.61.61,0,0,0,.37.1v-.21h1v-.61l.25.2c0-.13,0-.2.12-.2s.12-.07.12-.21h.49v-.41h.48v1h.25c0,.07,0,.1.12.1a.55.55,0,0,0,.37.1v-.41a1.08,1.08,0,0,0,.73.21v-.41l.24.2v-.41a1.3,1.3,0,0,1,.85.21v.82a1.7,1.7,0,0,1-.85-.21v.41a.53.53,0,0,1-.36-.1c-.09,0-.13,0-.13-.1v.62h-.48a1.51,1.51,0,0,1-.06.41c0,.13.14.2.54.2v.41c-.08-.07-.4,0-1,.21q0-.21-.12-.21a.71.71,0,0,1-.37-.2.92.92,0,0,1-.24.51.91.91,0,0,0-.25.51v-.82c-.16,0-.24,0-.24.11s-.08.1-.24.1v.61l.24-.2v.82h-.24v.21a2,2,0,0,1-.67-.11,2.08,2.08,0,0,0-.55-.1v.41h-1v.62l-.24-.21v.41h-.24a13.89,13.89,0,0,0,.6,1.95,12.5,12.5,0,0,1,.61,2.06,2,2,0,0,1,.37.72,2.21,2.21,0,0,0,.36.72,2.49,2.49,0,0,0,.13.87,8.21,8.21,0,0,0,.36.87c.16.35.29.62.37.82s.2.48.36.83a2.94,2.94,0,0,0,.49,1.43,2.29,2.29,0,0,0,.12.82c.08.21.2.48.37.83a.83.83,0,0,0,.12.41.78.78,0,0,1,.12.41c0,.14,0,.2.12.2s.13.07.13.21c.65,0,1.28,0,1.89-.1a14.53,14.53,0,0,1,1.64-.11c.49,0,.73-.06.73-.2l.25-.21v-.41l.48.21v-.41q0-.21-.24-.21h1.22v-1.64a2,2,0,0,0,.24-1v-.2l.25-.21a7.6,7.6,0,0,0,.12,1.44,6.41,6.41,0,0,1,.12,1.23l.24-.21v.42a2.82,2.82,0,0,1,.43.41.73.73,0,0,0,.55.2v.41h.24q-.48,0-.48.21v.41H244a9,9,0,0,0,1.89-.21,1.12,1.12,0,0,0-.12-.46,1.18,1.18,0,0,1-.13-.56.56.56,0,0,1,.25.05.69.69,0,0,0,.24.05.36.36,0,0,0,.25.1,2.39,2.39,0,0,0,1,.21v.82h1.22v-.82h.12a.79.79,0,0,1,.37.2,1.07,1.07,0,0,1,.24-.82l-.49-.62a4.23,4.23,0,0,1-.48-.82l-.25.21v-.21a.56.56,0,0,0,.37-.1c.08-.07.2,0,.36.1a1.46,1.46,0,0,1,.61,1.13,1.49,1.49,0,0,0,.61,1.13.39.39,0,0,0,.12.31c0,.07,0,.1.13.1a7.52,7.52,0,0,1,1,.06,1,1,0,0,0,.79-.26.29.29,0,0,0-.12-.21.73.73,0,0,0-.36-.2c.48,0,.73-.21.73-.62h.24a2.74,2.74,0,0,0,.49,1.23H255l-.73-1.85c-.16,0-.24,0-.24.11s-.09.1-.25.1v-1.23a21.31,21.31,0,0,1-1.28-2.52l-1.16-2.72c0-.34-.2-.5-.61-.46a3,3,0,0,1-1.22-.16.58.58,0,0,0-.24.41.58.58,0,0,1-.24.42c0,.13-.17.34-.49.61a.75.75,0,0,1,0-.82l.49-.62h-.25l-.24-.2a.72.72,0,0,0,.49.2h.24a.67.67,0,0,0,.18-.2.72.72,0,0,1,.19-.21.26.26,0,0,0,.12-.2.21.21,0,0,0-.06-.16.18.18,0,0,1-.06-.15l-.13-.1a3.6,3.6,0,0,1-1-.11,3.22,3.22,0,0,1-.73-.3,1.26,1.26,0,0,1,.49.1,1.18,1.18,0,0,0,.48.1v-.2h1v.41a.77.77,0,0,0,.49.2h.24a.83.83,0,0,0-.12-.41.81.81,0,0,1-.12-.41.78.78,0,0,0-.49-.21.74.74,0,0,1-.49-.2.69.69,0,0,1,.24.05.59.59,0,0,0,.25.05.36.36,0,0,0,.24.1,1,1,0,0,0-.12-.51,1,1,0,0,1-.12-.51,19,19,0,0,1-1.1-2.16c-.32-.75-.69-1.5-1.1-2.26l-.73-1.85c0-.27-.16-.41-.48-.41a3.12,3.12,0,0,0-.25-1.33,5.93,5.93,0,0,1-.36-1c-.09-.31-.21-.67-.37-1.08l-.73-1.85a1.91,1.91,0,0,1-.37-.77c-.08-.31-.36-.39-.85-.25a.67.67,0,0,1,.37-.21c.08,0,.12-.07.12-.2a3,3,0,0,1-.43-.77c-.12-.31-.26-.64-.42-1a1,1,0,0,0-.13-.51,1,1,0,0,1-.12-.52q-1.09-2.46-2-4.93a27,27,0,0,0-2.38-4.83,1,1,0,0,0-.12-.51,1,1,0,0,1-.12-.51,5.39,5.39,0,0,1-.85-1.59c-.17-.52-.37-1.05-.61-1.6V335a2.84,2.84,0,0,0,.61-.72c.16-.27.36-.58.61-.92a3.3,3.3,0,0,1,.48-1,.39.39,0,0,1,.12-.31.37.37,0,0,0,.13-.3,2.92,2.92,0,0,0,.73-.93,1.11,1.11,0,0,1,.49-.82,1,1,0,0,1,.18-.57c.12-.17,0-.32-.43-.46a.56.56,0,0,1,.37.11.59.59,0,0,0,.36.1,8.56,8.56,0,0,1,1-1.64,3.18,3.18,0,0,1,.49-1,4.23,4.23,0,0,1,.48-.82,3.87,3.87,0,0,0,.49-.83.92.92,0,0,0,.3-.36,1,1,0,0,1,.31-.35,2.9,2.9,0,0,0,.49-1.24,4.17,4.17,0,0,0,.36-.51,4.08,4.08,0,0,1,.37-.52v-.1c0-.06.08-.17.24-.31l.73-1.23a.76.76,0,0,1,.13-.41.78.78,0,0,0,.12-.41,3.42,3.42,0,0,0,.85-1.39,3.46,3.46,0,0,1,.85-1.38l.13-.1a.21.21,0,0,1,.06-.16.18.18,0,0,0,.06-.15v-.41h.24c.16-.35.29-.62.37-.83a2.44,2.44,0,0,1,.36-.61,2.05,2.05,0,0,0,.37-.72,2.12,2.12,0,0,1,.36-.72A3,3,0,0,0,250,312a1.48,1.48,0,0,1,.49-.71,4.82,4.82,0,0,1,.85-1.34c.17-.13.25-.48.25-1l.24.21v-.21l.73-1.23a.92.92,0,0,0,.25-.51.94.94,0,0,1,.24-.52.75.75,0,0,0,.24-.61l.49-.21-.73-.61v-.41h-2.32q-.24.19-.42,0c-.12-.14-.31-.14-.55,0h-5.85c-.17,0-.39,0-.67-.05a.68.68,0,0,0-.67.25v-.2h-2.2a9,9,0,0,0-2.74,0,9.67,9.67,0,0,1-2.74,0,1.77,1.77,0,0,1-1,.1,3.65,3.65,0,0,0-1-.1,1,1,0,0,0-.25.61,1,1,0,0,1-.24.62c-.24.55-.47,1.06-.67,1.54a14.56,14.56,0,0,0-.55,1.54c-.16.14-.24.24-.24.31s-.09.1-.25.1v1a.63.63,0,0,0,.37-.1.53.53,0,0,1,.36-.11c0,.76-.32,1.13-1,1.13v-.72a1.52,1.52,0,0,0-.24.93H230c-.08,0-.12,0-.12.1a.39.39,0,0,0-.12.31,8.78,8.78,0,0,0-.61,1.23c-.17.41-.37.89-.61,1.44-.41.82-.79,1.69-1.16,2.62s-.75,1.8-1.16,2.62a9.1,9.1,0,0,0-1,2c-.25.68-.49,1.33-.73,1.95a.89.89,0,0,0-.25.72,3.3,3.3,0,0,0-.48,1c-.25.54-.47,1.06-.67,1.54a3.78,3.78,0,0,0-.31,1.54h-.24v1l-.25-.2v1h-.24a4.41,4.41,0,0,1,.43.66,2.1,2.1,0,0,0,.54.67,7.43,7.43,0,0,0-.06-1,1.36,1.36,0,0,1,.31-1v-1l-.25.21c-.24-.48-.08-1,.49-1.44h.25v-.82a1.29,1.29,0,0,1,.12.92.76.76,0,0,0,.12.72c-.16.21-.29.36-.37.46a.6.6,0,0,0-.12.36c0,.14.16.35.49.62a5.68,5.68,0,0,0,.43-.41,2.1,2.1,0,0,1,.54-.41,1.88,1.88,0,0,0,.25,1H225v-.82c-.4,0-.63.12-.67.36a1.5,1.5,0,0,1-.3.67l.49-.21v.62a.78.78,0,0,0-.43.51,1.43,1.43,0,0,1-.3.62,1.31,1.31,0,0,1,.67-.2.8.8,0,0,0,.54-.21v-.72a.83.83,0,0,0,1,0h.73v1.54a1.16,1.16,0,0,1-.73-.2v1.23h-.49v.82c-.16-.14-.24-.24-.24-.31v-.1l-.49-.21V334q0-.21-.24-.21c0-.14-.17-.21-.49-.21-.16.35-.35.47-.55.36a1.5,1.5,0,0,0-.67-.15v.41h-.49V333h-.24v-.41c0,.27.16.41.49.41a1,1,0,0,0-.13-.52,1,1,0,0,1-.12-.51,1.59,1.59,0,0,1-.61-.1,1.53,1.53,0,0,0-.61-.1.72.72,0,0,1,.25.61l-.12-.1a.31.31,0,0,1-.19-.05.24.24,0,0,0-.18-.05,3.26,3.26,0,0,1-.12.92,7.42,7.42,0,0,1-.37.93v-1a.56.56,0,0,1-.24-.41v-.41c-.33,0-.49-.21-.49-.62a.4.4,0,0,0,.37-.26,1.41,1.41,0,0,1,.36-.46.47.47,0,0,1,0-.82v-4.93a.78.78,0,0,0-.49.21v-.42a.24.24,0,0,0-.18.06.3.3,0,0,1-.18,0l-.12.1a1.32,1.32,0,0,1-.37-.92.78.78,0,0,1-.24-.62c0,.07,0,.1.12.1a.79.79,0,0,0,.49.1q0,.31.24.36a.55.55,0,0,0,.49-.15,7.34,7.34,0,0,0,.24-1.85v-1.85a1.48,1.48,0,0,0-.49.1,1.2,1.2,0,0,1-.48.11,4.41,4.41,0,0,0-1,.1,1.87,1.87,0,0,1-1-.1,4.35,4.35,0,0,0,1.53-.31,2.29,2.29,0,0,1,1.52-.1v-4a3,3,0,0,1-1.83-.41.85.85,0,0,1-.48.36,2.09,2.09,0,0,1-.49,0v-1.23h.12a.79.79,0,0,1,.37.2.93.93,0,0,1,.54-.36,3.34,3.34,0,0,0,.8-.25c-.57,0-.86-.14-.86-.41a.66.66,0,0,0,.55.15c.2,0,.31.12.31.46h.73a1.68,1.68,0,0,0-.55.11,2,2,0,0,1-.55.1v.61a1.91,1.91,0,0,0,1.1-.2v-1.08a3.27,3.27,0,0,1,.24-1.18v-1.69a6,6,0,0,0-.24-1.7v-4.31a.21.21,0,0,0-.06-.16.18.18,0,0,1-.06-.15l-.13-.1a95.59,95.59,0,0,0-11,0,5.47,5.47,0,0,1-.61-.05m25.85,2.1h1v.67c0,.24.2.36.61.36a1.26,1.26,0,0,1,.49.1,1.19,1.19,0,0,0,.49.1v.62l-.25-.21a1,1,0,0,0-.73-.1.62.62,0,0,1-.61-.1h-.49v-.21h-.73l.49-.41h-.24Zm-20.24,3.7a3.38,3.38,0,0,0-.12-.93,3.26,3.26,0,0,1-.12-.92.9.9,0,0,1,.3.51.38.38,0,0,0,.43.31v-.62a.39.39,0,0,0,.12.31c0,.07,0,.11.12.11h.49c-.41.48-.32,1,.25,1.43h-.25a.62.62,0,0,1,.25.47v.46a1.11,1.11,0,0,0-.13-.46,1.64,1.64,0,0,1-.12-.67,1.16,1.16,0,0,0-.73.2v-.41a.3.3,0,0,0-.18.05.27.27,0,0,1-.19.06Zm27.92-1a.53.53,0,0,0,.36-.1.55.55,0,0,1,.37-.1,7.54,7.54,0,0,1-.06,1,2.25,2.25,0,0,1-.43,1v-.93a1.13,1.13,0,0,0-.55.11c-.12.06-.18.27-.18.61h.24l-.24.21a2.31,2.31,0,0,0-1.22.2v-.2a.58.58,0,0,0,.37-.11.59.59,0,0,1,.36-.1c.24,0,.35-.08.31-.26a1.61,1.61,0,0,1-.07-.46l-.48-.2.73-.62a.78.78,0,0,1-.25-.62Zm-3.23,2.26a1.53,1.53,0,0,0,1-.31v1.44a.59.59,0,0,0-.36.1.58.58,0,0,1-.37.1v.62h-1c0,.07-.05.1-.13.1a.53.53,0,0,1-.36.11c0,.13,0,.2-.12.2s-.13.07-.13.21h-1v-.62a3.8,3.8,0,0,0-.79.1,3.41,3.41,0,0,1-.8.11v.41a.53.53,0,0,1-.36-.11.63.63,0,0,0-.37-.1v1a.69.69,0,0,0-.36-.21.64.64,0,0,1-.37-.2v-.41l.73.61v-1c0,.13.08.2.25.2h.24v-.61h-1V314a3.05,3.05,0,0,0-1.21-.21l-.37.46a.6.6,0,0,0-.12.36,2.79,2.79,0,0,1,.49-1.23,1.53,1.53,0,0,0-1,.41l.24-.41h-.24v-.62c.16.14.24.25.24.31s.08.17.25.31h1.46v-.41l.24.2a.76.76,0,0,1,.13-.41.78.78,0,0,0,.12-.41.69.69,0,0,0,.36.21.75.75,0,0,1,.37.2,2,2,0,0,0,1.28.21,4.45,4.45,0,0,0,1.28-.41v.61a3.51,3.51,0,0,0,.67-.05.57.57,0,0,1,.55.26v-.62a1.14,1.14,0,0,1,.73-.2,1.08,1.08,0,0,1-.73-.21c-.16-.34,0-.51.43-.51m1.15,1.23c.25.07.29.17.13.31a.76.76,0,0,1-.61.16c-.25,0-.29-.16-.13-.37a.68.68,0,0,1,.61-.1m-28.46,2.57a4.7,4.7,0,0,1,1.4-.21v.21c-.4,0-.59.12-.54.36a4.06,4.06,0,0,1,.06.67,5.13,5.13,0,0,0,1.22-.41v.2a.69.69,0,0,0,.36.21.79.79,0,0,1,.37.2,1.35,1.35,0,0,1,.48-.41.39.39,0,0,0,.25-.41,1,1,0,0,1,.24.57v.46a1.43,1.43,0,0,0-.73.41l-.49-.21c.33.35.33.65,0,.93a.6.6,0,0,1-.24-.46v-.47a.43.43,0,0,0-.12.52,1.66,1.66,0,0,1,.12.61h-.24v-1.54a2,2,0,0,0-1,.21,5.68,5.68,0,0,1-1,.41v-.41a3.1,3.1,0,0,1-1.4.31,3,3,0,0,0-1.4.31v-.21a4.36,4.36,0,0,0,1.46-.41v-.21c.25,0,.55,0,.92.05a1.18,1.18,0,0,0,.91-.25.78.78,0,0,0-.12-.41.83.83,0,0,1-.12-.41,1.65,1.65,0,0,0-.55.1,1.69,1.69,0,0,1-.55.1v.1c0,.07-.08.11-.24.11,0-.14-.17-.35-.49-.62a2.38,2.38,0,0,0,1.4,0m-3.11,0v.62a.53.53,0,0,1-.36-.11.63.63,0,0,0-.37-.1,3.38,3.38,0,0,1-.12.93,2.57,2.57,0,0,0-.12.72c-.33,0-.49.17-.49.51v.41a.71.71,0,0,0-.37-.21.65.65,0,0,1-.36-.2,2.2,2.2,0,0,0,1-.77,1.14,1.14,0,0,0,.19-1.18.55.55,0,0,0-.37.1.53.53,0,0,1-.36.1v-.2a1.48,1.48,0,0,0,.73-.21,1.44,1.44,0,0,1,.73-.2Zm-3.65,2.77a.69.69,0,0,1,.24.05.54.54,0,0,0,.25.06.34.34,0,0,0,.24.1H206a2.24,2.24,0,0,0-.25.92v.72a.31.31,0,0,1,.19,0,.24.24,0,0,0,.18.05l.12.11v.41a.65.65,0,0,1-.36.2.71.71,0,0,0-.37.21.18.18,0,0,0-.06-.15.21.21,0,0,1-.06-.16l-.12-.1h-.49v-.41a.58.58,0,0,0,.37-.11.59.59,0,0,1,.36-.1c0-.54.08-.89.24-1a2.36,2.36,0,0,0-1.7,0,.58.58,0,0,0,.37-.11c.07,0,.12,0,.12-.1Zm6.34,2.06c.73-.27,1.17-.27,1.34,0v.2a.53.53,0,0,0,.36-.1.55.55,0,0,1,.37-.1,2.28,2.28,0,0,1-1.47.41v.41c-.4-.21-.71-.22-.91-.05a4.66,4.66,0,0,1-.67.46v-.21a2,2,0,0,1,.49-.3.33.33,0,0,0,.24-.31h-.49v-.21a2,2,0,0,1-1.09.26,2.8,2.8,0,0,0-1.1.15v-.41a.69.69,0,0,0-.24.05.61.61,0,0,1-.25.06.42.42,0,0,1-.24.1v-.21h1.22v-.2h1.46v.2h1Zm3.9-.21a.55.55,0,0,1,.61.21.41.41,0,0,1-.25.41c-.16.07-.32,0-.49-.21s-.12-.34.13-.41m22.42,3.08v.41a.9.9,0,0,0-.48.93.57.57,0,0,0-.13-.36.56.56,0,0,1-.12-.36c-.41-.07-.63.07-.67.41s-.26.45-.67.31v.2a3.45,3.45,0,0,1-.49-.51,4.6,4.6,0,0,0,.74,0q.36,0,.36-.36c.32,0,.49-.14.49-.41a.59.59,0,0,0,.36-.1c.08,0,.13,0,.13-.11Zm-10.48,2.37h.12a.71.71,0,0,0,.37-.21v1.23a2.64,2.64,0,0,0-.73.11,3.13,3.13,0,0,1-.73.1l.73-.62a1.18,1.18,0,0,0-.73-.2,1.57,1.57,0,0,0,1-.21ZM202,327.53c0-.55.08-.89.24-1a2.47,2.47,0,0,1-.06.56c0,.17.14.33.55.47v-.62a1,1,0,0,0,.43-.1.82.82,0,0,1,.42-.11v.83l-.37-.21v.41h-.48v.21c-.57,0-.73.2-.49.61a.55.55,0,0,1-.24-.41v-.41a1.18,1.18,0,0,0-.86.26,5.87,5.87,0,0,1-.61.56,5.87,5.87,0,0,0,.61-.56,2.64,2.64,0,0,1,.61-.46Zm23.77-.72c.08.2,0,.3-.25.3s-.41.11-.49-.1,0-.31.25-.31.4-.1.49.11m-19,4.21a1.1,1.1,0,0,0,.73-.21,1.19,1.19,0,0,1-.49.93,1.18,1.18,0,0,0,.13.56,1.12,1.12,0,0,1,.12.46l.24.21v.41a1.07,1.07,0,0,1,.25.82h1.46V334h1a.36.36,0,0,1-.12.3.39.39,0,0,0-.12.31v-.41a1.08,1.08,0,0,0-.73.21v.2h-.73v-.41c-.49,0-.69.12-.61.36a2.11,2.11,0,0,1,.12.67h-.73a1.53,1.53,0,0,1-.19.82c-.12.21-.06.41.19.62a1.35,1.35,0,0,1,.55.56c.12.24.26.5.42.77h.73v.41a.73.73,0,0,1,.61.31,1.07,1.07,0,0,0,.86.31v-.62a.78.78,0,0,1,.24.62,3.42,3.42,0,0,0,1.1-.21v1H212v.2a1.4,1.4,0,0,1,.73.42l.74-.62a2.64,2.64,0,0,0,.6-.46c.17-.17.37-.36.61-.57v-.61a1.19,1.19,0,0,0,.74.2,1.17,1.17,0,0,0-.25-.72l.12-.1a.18.18,0,0,1,.06-.15.22.22,0,0,0,.07-.16c.16.21.32.29.48.26a2.09,2.09,0,0,1,.49-.05,2.44,2.44,0,0,0,.55-.41,3.28,3.28,0,0,1,.42-.41,4.77,4.77,0,0,1-.61,1,.89.89,0,0,0-.12,1v-.41a1.18,1.18,0,0,0-.48.1,1.26,1.26,0,0,1-.49.1,2.38,2.38,0,0,0-1,1,5,5,0,0,1-.61.31l-.6.3a.74.74,0,0,1-.37.21.74.74,0,0,0-.37.21.55.55,0,0,1,.37.1.55.55,0,0,0,.37.1v.41a4.75,4.75,0,0,0,1.7.21v.41c-.16,0-.24,0-.24-.1s-.08-.11-.25-.11v.82l-.73-.61a1.47,1.47,0,0,0,.73.41v-.82h-2.19v-.41a4.78,4.78,0,0,0-.67.05.69.69,0,0,1-.67-.26h1.1a1,1,0,0,0-.55-.36,3.25,3.25,0,0,1-.79-.26c0-.2-.15-.34-.43-.41s-.31-.27-.06-.61l-.49.2v.41h-.24V339a1.53,1.53,0,0,1-1-.41v-.41A.78.78,0,0,1,208,338a3.39,3.39,0,0,1-.3-.51c-.09-.17-.17-.33-.25-.47s-.24-.17-.49-.1v1.34l.25-.21v.62c0,.14-.17.34-.49.61h.49a1.08,1.08,0,0,0-.73.21v.2a1,1,0,0,1-.25-.82,2.38,2.38,0,0,1-.79-.15c-.29-.1-.35-.33-.18-.67a.39.39,0,0,0,.12.31.39.39,0,0,1,.12.31,1.1,1.1,0,0,1,1-.62v-1.13a3.38,3.38,0,0,0-.25-1.23h.25v.41c.4,0,.59-.16.54-.46a7.7,7.7,0,0,1-.06-1h-.73v.82a1.12,1.12,0,0,0-.12-.46,1.31,1.31,0,0,1-.12-.56l-.25.2v-.41h.49v.21a.85.85,0,0,1,.43.1,1.12,1.12,0,0,0,.55.1,4.51,4.51,0,0,0-.19-1.28,2.28,2.28,0,0,0-.79-1.18.79.79,0,0,0,.25-.62h.24Zm15.36,9.86.24-.21v.82l.25-.2v.61a.77.77,0,0,1,.48-.2h.49a.65.65,0,0,1-.36.2.67.67,0,0,0-.37.21,1.31,1.31,0,0,1-.18.56c-.12.25-.31.26-.55.06v-.83a.53.53,0,0,0-.24.06.79.79,0,0,1-.25.05.42.42,0,0,1-.24.1,2.38,2.38,0,0,0,.3-.46c0-.11.19-.22.43-.36Zm-14.87,2.87a6.28,6.28,0,0,0-.06-.77c0-.31.14-.39.55-.25v.41a.75.75,0,0,1,.54,1,1.31,1.31,0,0,0,.19,1.18l.24-.2v.41h-1.46v.82h-.49a2.11,2.11,0,0,1-.3-.46,1.11,1.11,0,0,0-.43-.36,3.12,3.12,0,0,0,.43-.46,1.56,1.56,0,0,1,.54-.46.68.68,0,0,1,.49-.62l.12-.1a.29.29,0,0,0,.19-.06.3.3,0,0,1,.18-.05Zm11.82,1a2.57,2.57,0,0,0,.37.36.59.59,0,0,0,.36-.1.54.54,0,0,1,.37-.11,1.07,1.07,0,0,1-.25-.72.72.72,0,0,0-.42-.2.71.71,0,0,1-.43-.21h-.12a.74.74,0,0,0-.37.21c0-.41-.24-.62-.73-.62a1.23,1.23,0,0,0,.49-.1,1.19,1.19,0,0,1,.49-.1v.41a1.05,1.05,0,0,0,.36-.11.56.56,0,0,0,.25-.05.69.69,0,0,1,.24-.05c-.08.28,0,.43.12.46a2.05,2.05,0,0,0,.49.06,2.09,2.09,0,0,1,.49.05c.16,0,.2.19.12.46a1.14,1.14,0,0,0,.49-.82v1h.73v.51a1.59,1.59,0,0,1,.61.1,1.53,1.53,0,0,0,.61.1l-.25.11v-.11a.93.93,0,0,1-1-.1,1,1,0,0,0-1-.1.74.74,0,0,1-.12.46.56.56,0,0,0-.12.36.56.56,0,0,1,.24.41.53.53,0,0,0,.25.41h-.25c0-.41-.24-.61-.73-.61-.16-.14-.24-.55-.24-1.24a.74.74,0,0,1-.37.21c-.08,0-.12.07-.12.2v.21a2.61,2.61,0,0,0-.55-.36,1.47,1.47,0,0,1-.55-.56.61.61,0,0,1,.49.15m-7.07,1.8a1.05,1.05,0,0,1,.25.82l-.13-.11a.24.24,0,0,1-.18-.05.3.3,0,0,0-.18-.05v.62a1.19,1.19,0,0,0-.92-.05c-.28.1-.5,0-.67-.36h.49v-.41a2,2,0,0,1,.67.1,2,2,0,0,0,.67.1Zm20.72,2.05c.41.34.41.62,0,.82a.47.47,0,0,1,0-.82m-16.82.1a1.26,1.26,0,0,0,.49.1,1.13,1.13,0,0,0,.12.47,1.31,1.31,0,0,1,.12.56h-1.21v-1.23a1.37,1.37,0,0,1,.48.1m16.95.93a.69.69,0,0,0,.36-.21V350h1a2,2,0,0,0,.24,1,1.36,1.36,0,0,1-.73-.41V351a.53.53,0,0,1,.36.11.56.56,0,0,0,.37.1v.93a.58.58,0,0,1-.24-.42.73.73,0,0,0-.74-.3,3.41,3.41,0,0,0-.73.3l-.24-.2h-.24v-1.34a.4.4,0,0,1,.12-.31c0-.06,0-.1.12-.1a.71.71,0,0,1,.37-.2m-11.22,1.23v1.34c-.32,0-.49-.07-.49-.21v.82h-.73V352l-.24.21a1.13,1.13,0,0,0-.12-.47,1,1,0,0,1-.13-.46,1.79,1.79,0,0,1,1,.31.64.64,0,0,1,.73-.72M239,355c.08.07.2,0,.37-.1s.2-.24.12-.31-.2,0-.37.1-.2.24-.12.31m-2.8-3.7a2,2,0,0,0,1,.72l.25-.21a3.87,3.87,0,0,0,.49.83l.48.61h.12a.75.75,0,0,0,.37-.2.39.39,0,0,1,.12-.31.39.39,0,0,0,.12-.31l.25-.2v-.11c0-.07.08-.17.24-.31v.62h.25a.91.91,0,0,0,.18.56c.12.18,0,.33-.43.47v1a.56.56,0,0,0,.37-.11.53.53,0,0,1,.36-.1v1.44c-.48,0-1,0-1.52-.05a2.65,2.65,0,0,0-1.4.25v-1h.49a.72.72,0,0,1,.48.2v-.41h-.73c-.16-.2-.16-.36,0-.46a5.1,5.1,0,0,0,.49-.36c0,.14-.16.2-.49.2v-1a5,5,0,0,1-1-1.24c-.33.28-.49.48-.49.62a1.11,1.11,0,0,0-.73-.2.69.69,0,0,1,.36-.21.74.74,0,0,0,.37-.21Zm-24.32,2.41c0-.17.06-.32.31-.46a.39.39,0,0,0,.12.31c0,.07,0,.1.12.1a.39.39,0,0,0,.12.31c0,.07,0,.1.12.1s-.08.21-.24.21H212a1,1,0,0,1-.12.51,1,1,0,0,0-.12.52.77.77,0,0,1-.43.2.69.69,0,0,0-.42.21v.61l-.25-.2v.61c.33.28.49.48.49.62a.36.36,0,0,1-.24.1.82.82,0,0,1-.49.11,3.23,3.23,0,0,1,1.09.92,1.8,1.8,0,0,0-1-.46.89.89,0,0,0-.85.46c.16-.34.14-.55-.07-.62a2.3,2.3,0,0,0-.67-.1l.13-.1a.21.21,0,0,1,.06-.16.18.18,0,0,0,.06-.15.74.74,0,0,1-.37.21.65.65,0,0,0-.36.2v-1h-.25v-1l.25.41v-.62l1.46,1.23.73-.61a.91.91,0,0,0-.73-.1,1,1,0,0,1-.73-.11,1.59,1.59,0,0,0,.61-.1c.16-.07.36-.17.61-.31v-.61a.42.42,0,0,0,.24.1.81.81,0,0,0,.49.1,8.37,8.37,0,0,1,.85-.82,2.56,2.56,0,0,0-.06-.57m31.75.57h-.24a1.33,1.33,0,0,0-.61.77,1,1,0,0,1-.73.67,2.94,2.94,0,0,1-.49,1.43h-.49c0,.42-.16.62-.48.62a1.18,1.18,0,0,0,.48.92l-.48.42v.41h-.25v.61h1.22a.84.84,0,0,0,.67.11,1.78,1.78,0,0,1,.55-.11,1.74,1.74,0,0,0,.55-.1,1.65,1.65,0,0,1,.55-.1v.61a.83.83,0,0,0-.43.11c-.12.07-.35.17-.67.31a.54.54,0,0,1-.55.1.8.8,0,0,0-.67.1v.82h-.24v.41h-.25v1.24h-.24v1.33h-.24v1c0,.14,0,.2.12.2h-.12a6.15,6.15,0,0,0-.37.93,1.29,1.29,0,0,0,.12.92h-.24a1,1,0,0,1-.24.62.71.71,0,0,0,0,.82.76.76,0,0,1,1,.41,1.53,1.53,0,0,0-1-.41,1,1,0,0,0,.12.51,1,1,0,0,1,.12.52l.12-.11a.24.24,0,0,0,.18-.05.33.33,0,0,1,.19-.05v1.23c.24-.13.42-.1.55.11a1.19,1.19,0,0,1,.18.61h1a1.18,1.18,0,0,1,.13-.56,1.49,1.49,0,0,0,.12-.57v.21c0,.14.08.2.24.2l.12-.1a.18.18,0,0,1,.06-.15.22.22,0,0,0,.07-.16v.41a.49.49,0,0,0-.49.26,1.19,1.19,0,0,0-.12.51.92.92,0,0,1-.13.47c-.08.13-.24.17-.48.1v-.62c0,.07-.05.11-.13.11a.53.53,0,0,1-.36.1,5.78,5.78,0,0,1-.43-.62.6.6,0,0,0-.55-.31,5.61,5.61,0,0,1-.48.72,1,1,0,0,0-.25.62v-1h.49a4.13,4.13,0,0,1-.49-1.74c-.57,0-.73.2-.49.61q-.48-.82,0-1.23V369a3.08,3.08,0,0,0,.8-1.23c.12-.41.26-.83.42-1.24a6.28,6.28,0,0,1,.06-.77c0-.3-.14-.53-.54-.66.16-.28.12-.43-.13-.47a1.15,1.15,0,0,1-.61-.25h1a2.47,2.47,0,0,1,.24-1.23l-.24-.21q0-.21.12-.21a.7.7,0,0,0,.37-.2.72.72,0,0,0-.12-.46.55.55,0,0,1-.13-.36c0-.14,0-.21.13-.21h.12a.38.38,0,0,1-.25-.1c-.16-.14-.24-.24-.24-.31a1.36,1.36,0,0,1-.67.21.81.81,0,0,0-.55.2v.41l-.49-.2v.2a.53.53,0,0,0-.36.11.63.63,0,0,1-.37.1v1h-.49v-.83l.74-.61q0-.21.12-.21c.08,0,.12-.07.12-.2a.69.69,0,0,1,.36-.21h.13a1.07,1.07,0,0,1-.25-.72,1.16,1.16,0,0,0-.24-.72,2.47,2.47,0,0,1-1,.21v-.41l-.24.2v-.41l-.24.21v-.62a.74.74,0,0,1-.37.21h-.12v-.42h-.55a.81.81,0,0,1-.55-.2v-.51h.37v.51a2.08,2.08,0,0,1,.55.1,2,2,0,0,0,.67.1c0-.27.08-.41.24-.41v.41a1.76,1.76,0,0,0,1.71.21v1a.56.56,0,0,0,.24-.41v-.41l.24.2v-.2a.89.89,0,0,0,.25-.47q0-.15.24-.36c-.32-.61-.41-1.06-.24-1.33l-.25.2v-.82l-.24.21v-.82a6.11,6.11,0,0,1,.37.51,1,1,0,0,1,.12.51.94.94,0,0,1,.24.52.85.85,0,0,0,.25.51c.4,0,.58-.08.54-.26a2.47,2.47,0,0,1-.06-.56,2.09,2.09,0,0,1,.49-.31,1.9,1.9,0,0,0,.49-.31v-.41c.16,0,.24,0,.24.11s.08.1.25.1v-.62c.48.14.71,0,.67-.41a.72.72,0,0,1,.55-.82.54.54,0,0,0,.6-.62Zm-15.6.62h.73v.41H229l.49.2a.4.4,0,0,1-.25.1.78.78,0,0,1-.49.11,1.17,1.17,0,0,0-.61.25c-.24.17-.36.16-.36-.05a.53.53,0,0,1-.25-.41v-.41l.49.21Zm-1.34.82c0-.14.08-.21.25-.21a.64.64,0,0,1,.48.31c.16.21.08.31-.24.31l-.24-.21Zm17.67,3.59a2.69,2.69,0,0,0,.74-.1,2.57,2.57,0,0,1,.73-.1v.82l-.25-.21a1.31,1.31,0,0,1-1.22.62Zm-1,13.56h1.46l.73.62a2.92,2.92,0,0,0,.49,1.23,2.45,2.45,0,0,0-.55-.52,7,7,0,0,1-.67-.51,1.14,1.14,0,0,1-.49-.82c-.32.27-.48.48-.48.62l.24-.62Z" transform="translate(-200.27 -301.85)"/></g></g></g></svg>