<svg xmlns="http://www.w3.org/2000/svg" fill="#53924f" viewBox="0 0 263.09 245.03"><title>Asset 1</title><g id="Layer_2" data-name="Layer 2"><g id="Layer_1-2" data-name="Layer 1"><path d="M68.36,171.86c-6.12,9.21-10.72,19.73-15.81,29.23-11.78,21.93,10,45.88,33.11,43,2.74-.34,5.68-.45,8.13-1.54,22.63-10.22,45-8.16,68.07-.76,10.25,3.28,21.92,3.58,32.83,3,20.47-1.09,30.42-16.53,23.44-35.69-11.74-32.28-32.63-57.62-61.27-76.31-17.54-11.44-38.13-10.18-55.09,4.2-9.09,7.71-17.27,16.36-25.56,24.92A70.39,70.39,0,0,0,68.36,171.86Z"/><path d="M148.1,92c12.75,8.89,27.59,7.5,36.81-3,16.22-18.69,22.81-40.38,15.52-64.76-3.22-10.69-8-21-20.68-23.59C166-2.1,155.05,4.2,148.15,14.78,134.3,36.05,130,59.16,141.49,83.21,143.48,87.35,147,90.66,148.1,92Z"/><path d="M96.06,9.59C78.56-3,59.38,3.57,53.4,24.21,46.57,47.87,57.27,80.52,76.53,94.6c16.71,12.24,38.3,3.14,43.75-18.47C125.94,53.62,114.86,23.12,96.06,9.59Z"/><path d="M48.65,95.55C24.19,79.1,2.05,89.48.18,114.79-1.53,137.85,8.89,155.6,27.7,167.7s39,2.45,42.78-19.55C74.67,124.24,62.44,107.47,48.65,95.55Z"/><path d="M202.85,93.44c-8.3,14.63-15.35,29.49-8.69,46.95,6,15.7,19.46,21.9,35.21,16.23,20.4-7.34,37.37-37.33,33.05-58.67-2.42-12.08-8.59-22-21-24.66-14.07-3-25.07,4.59-34.49,14.32C205.28,89.29,204.19,91.49,202.85,93.44Z"/></g></g></svg>